# xmcd
# 
# Track frame offsets:
#     150
#     14369
#     23757
#     46845
#     83786
#     103226
#     128095
#     141980
#     160000
#     176982
#     193489
#     230161
#     245027
#     274058
#     303661
#     319180
#     339572
# 
# Disc length: 4752
# 
# Revision: 1
# Processed by: cddbd v1.5.2PL0 Copyright (c) Steve Scherf et al.
# Submitted via: fre:ac v1.0.31
# 
DISCID=fc128e11
DTITLE=Original Soundtrack - Janis Joplin: Little Girl Blue
DYEAR=2016
DGENRE=Soundtrack
TTITLE0=Janis Joplin - Careless Love
TTITLE1=Big Brother and The Holding Company - Down on Me
TTITLE2=Big Brother and The Holding Company - Women Is Losers [live at the Avalon Ballroom (SF, 1966.12.09)]
TTITLE3=Big Brother and The Holding Company - Ball and Chain [live at the Monterey Pop Festival (1967.06.17)]
TTITLE4=Big Brother and The Holding Company - Piece of My Heart [live at the Generation Club (NYC, 1968.04) – previously unreleased]
TTITLE5=Big Brother and The Holding Company - Catch Me Daddy [live at the Grande Ballroom (Detroit, 1968.03.02)]
TTITLE6=Big Brother and The Holding Company - Magic of Love [live at the Grande Ballroom (Detroit, 1968.03.02)]
TTITLE7=Big Brother and The Holding Company - Summertime
TTITLE8=Janis Joplin with the Kozmic Blues Band - Raise Your Hand [live in Frankfort, West Germany (1969.04.12)]
TTITLE9=Janis Joplin - Maybe
TTITLE10=Janis Joplin - Work Me, Lord [live at the Woodstock Music and Art Fair (1969.08.17)]
TTITLE11=Janis Joplin and The Full-Tilt Boogie Band - Trust Me
TTITLE12=Janis Joplin - Cry Baby [live on the Festival Express Tour (Calgary, 1970.07.04)]
TTITLE13=Janis Joplin - Tell Mama [live on the Festival Express Tour (Calgary, 1970.07.04)]
TTITLE14=Janis Joplin and The Full-Tilt Boogie Band - Get It While You Can
TTITLE15=Janis Joplin and The Full-Tilt Boogie Band - Me and Bobby McGee
TTITLE16=Janis Joplin - Little Girl Blue
EXTD=Info URL: https://www.amazon.com/gp/product/B01BG6K68W
EXTT0=
EXTT1=
EXTT2=
EXTT3=
EXTT4=
EXTT5=
EXTT6=
EXTT7=
EXTT8=
EXTT9=
EXTT10=
EXTT11=
EXTT12=
EXTT13=
EXTT14=
EXTT15=
EXTT16=
PLAYORDER=
